<?xml version="1.0" encoding="UTF-8"?>
<svg xmlns="http://www.w3.org/2000/svg" xmlns:xlink="http://www.w3.org/1999/xlink" width="15pt" height="15pt" viewBox="0 0 15 15" version="1.1">
<g id="surface1">
<path style=" stroke:none;fill-rule:nonzero;fill:rgb(0%,0%,0%);fill-opacity:1;" d="M 14.429688 0 L 0.5625 0 C 0.25 0 0 0.25 0 0.5625 L 0 14.429688 C 0 14.742188 0.25 14.992188 0.5625 14.992188 L 14.429688 14.992188 C 14.742188 14.992188 14.992188 14.742188 14.992188 14.429688 L 14.992188 0.5625 C 14.992188 0.25 14.742188 0 14.429688 0 Z M 3.984375 12.335938 C 3.984375 12.542969 3.816406 12.710938 3.609375 12.710938 L 2.113281 12.710938 C 1.90625 12.710938 1.738281 12.542969 1.738281 12.335938 L 1.738281 5.792969 C 1.738281 5.585938 1.90625 5.417969 2.113281 5.417969 L 3.609375 5.417969 C 3.816406 5.417969 3.984375 5.585938 3.984375 5.792969 Z M 3.984375 3.894531 C 3.984375 4.101562 3.816406 4.269531 3.609375 4.269531 L 2.113281 4.269531 C 1.90625 4.269531 1.738281 4.101562 1.738281 3.894531 L 1.738281 2.566406 C 1.738281 2.359375 1.90625 2.191406 2.113281 2.191406 L 3.609375 2.191406 C 3.816406 2.191406 3.984375 2.359375 3.984375 2.566406 Z M 13.253906 12.335938 C 13.253906 12.542969 13.085938 12.710938 12.878906 12.710938 L 11.382812 12.710938 C 11.175781 12.710938 11.007812 12.542969 11.007812 12.335938 L 11.007812 9.574219 C 11.007812 8.65625 10.960938 8.066406 10.863281 7.796875 C 10.769531 7.527344 10.613281 7.316406 10.398438 7.167969 C 10.179688 7.019531 9.921875 6.945312 9.617188 6.945312 C 9.230469 6.945312 8.878906 7.050781 8.570312 7.265625 C 8.261719 7.476562 8.050781 7.761719 7.9375 8.113281 C 7.824219 8.464844 7.765625 9.113281 7.765625 10.0625 L 7.765625 12.335938 C 7.765625 12.542969 7.597656 12.710938 7.390625 12.710938 L 5.894531 12.710938 C 5.6875 12.710938 5.519531 12.542969 5.519531 12.335938 L 5.519531 5.792969 C 5.519531 5.585938 5.6875 5.417969 5.894531 5.417969 L 7.230469 5.417969 C 7.4375 5.417969 7.605469 5.585938 7.605469 5.792969 L 7.605469 6.292969 C 7.605469 6.5 7.707031 6.53125 7.84375 6.378906 C 8.542969 5.609375 9.394531 5.226562 10.402344 5.226562 C 10.898438 5.226562 11.347656 5.316406 11.757812 5.496094 C 12.167969 5.671875 12.480469 5.902344 12.691406 6.179688 C 12.902344 6.453125 13.046875 6.769531 13.128906 7.121094 C 13.210938 7.472656 13.253906 7.976562 13.253906 8.628906 Z M 13.253906 12.335938 "/>
</g>
</svg>
