<?xml version="1.0" encoding="UTF-8"?>
<svg xmlns="http://www.w3.org/2000/svg" xmlns:xlink="http://www.w3.org/1999/xlink" width="15pt" height="15pt" viewBox="0 0 15 15" version="1.1">
<g id="surface1">
<path style=" stroke:none;fill-rule:nonzero;fill:rgb(0%,0%,0%);fill-opacity:1;" d="M 13.5 0 L 1.5 0 C 0.675781 0 0 0.675781 0 1.5 L 0 13.5 C 0 14.324219 0.675781 15 1.5 15 L 13.5 15 C 14.324219 15 15 14.324219 15 13.5 L 15 1.5 C 15 0.675781 14.324219 0 13.5 0 Z M 11.773438 5.476562 C 11.699219 8.925781 9.523438 11.324219 6.226562 11.476562 C 4.875 11.550781 3.898438 11.101562 3 10.574219 C 3.976562 10.726562 5.25 10.351562 5.925781 9.75 C 4.949219 9.675781 4.351562 9.148438 4.050781 8.324219 C 4.351562 8.398438 4.648438 8.324219 4.875 8.324219 C 3.976562 8.023438 3.375 7.5 3.300781 6.300781 C 3.523438 6.449219 3.824219 6.523438 4.125 6.523438 C 3.449219 6.148438 3 4.726562 3.523438 3.824219 C 4.5 4.875 5.699219 5.773438 7.648438 5.925781 C 7.125 3.824219 9.976562 2.699219 11.101562 4.125 C 11.625 4.050781 12 3.824219 12.375 3.675781 C 12.226562 4.199219 11.925781 4.5 11.550781 4.800781 C 11.925781 4.726562 12.300781 4.648438 12.601562 4.5 C 12.523438 4.875 12.148438 5.175781 11.773438 5.476562 Z M 11.773438 5.476562 "/>
</g>
</svg>
